
<svg id="svg-afterpay" xmlns="http://www.w3.org/2000/svg" viewBox="0 0 387.48 135.04" xmlns:xlink="http://www.w3.org/1999/xlink">
  <path fill="#B2FCE4" d="M320.06 135.04l-252.62 0c-37.25,0 -67.44,-30.23 -67.44,-67.52 0,-37.3 30.19,-67.52 67.44,-67.52l252.62 0c37.22,0 67.42,30.22 67.42,67.52 0.02,37.27 -30.2,67.52 -67.42,67.52z"/>
  <path fill="#000000" d="M330.26 51.38l-8.48 -4.86 -8.59 -4.93c-5.69,-3.27 -12.79,0.83 -12.79,7.41l0 1.1c0,0.61 0.32,1.18 0.86,1.47l3.98 2.28c1.12,0.64 2.5,-0.17 2.5,-1.45l0 -2.62c0,-1.3 1.39,-2.11 2.51,-1.47l7.85 4.51 7.81 4.49c1.11,0.64 1.11,2.28 0,2.92l-7.81 4.49 -7.85 4.52c-1.12,0.63 -2.51,-0.18 -2.51,-1.48l0 -1.3c0,-6.57 -7.11,-10.69 -12.8,-7.41l-8.59 4.94 -8.48 4.85c-5.71,3.29 -5.71,11.56 0,14.85l8.48 4.85 8.59 4.94c5.69,3.26 12.8,-0.84 12.8,-7.41l0 -1.11c0,-0.61 -0.33,-1.18 -0.87,-1.47l-4 -2.28c-1.1,-0.64 -2.47,0.17 -2.47,1.45l0 2.62c0,1.3 -1.4,2.11 -2.52,1.48l-7.85 -4.52 -7.8 -4.49c-1.14,-0.64 -1.14,-2.28 0,-2.92l7.8 -4.49 7.85 -4.51c1.12,-0.64 2.52,0.17 2.52,1.47l0 1.3c0,6.58 7.1,10.69 12.79,7.41l8.59 -4.93 8.48 -4.86c5.71,-3.31 5.71,-11.56 0,-14.84zm-167.17 4.47c0,0 1.82,-3.39 6.32,-3.39 1.91,0 3.12,0.66 3.12,0.66l0 7.44c0,0 -2.68,-1.67 -5.18,-1.33 -2.46,0.35 -4.02,2.6 -4.02,5.65l0 17.24 -7.41 0 0 -29.12 7.15 0 0.02 2.85zm69.17 26.3l0 -3.78c-2.15,2.62 -5.36,4.25 -9.18,4.25 -7.99,0 -14.05,-6.41 -14.05,-15.04 0,-8.56 6.32,-15.09 14.21,-15.09 3.73,0 6.87,1.64 9.02,4.19l0 -3.68 7.15 0 0 29.15 -7.15 0zm-0.07 -14.57c0,-4.91 -3.54,-8.34 -7.9,-8.34 -4.38,0 -7.92,3.5 -7.92,8.34 0,4.78 3.54,8.34 7.92,8.34 4.36,0 7.9,-3.44 7.9,-8.34zm-56.17 26.46l0 -41.04 7.15 0 0 3.78c2.15,-2.68 5.36,-4.32 9.18,-4.32 7.88,0 14.05,6.48 14.05,15.04 0,8.56 -6.29,15.09 -14.21,15.09 -3.68,0 -6.69,-1.45 -8.81,-3.9l0 15.33 -7.36 0 0 0.02zm23.04 -26.47c0,-4.71 -3.54,-8.34 -7.9,-8.34 -4.37,0 -7.92,3.51 -7.92,8.34 0,4.79 3.55,8.35 7.92,8.35 4.36,0 7.9,-3.61 7.9,-8.35zm-69.14 1.92c0.53,4.31 3.61,6.77 7.52,6.77 3.1,0 5.48,-1.45 6.88,-3.78l7.52 0c-1.75,6.18 -7.29,10.13 -14.56,10.13 -8.8,0 -14.98,-6.18 -14.98,-14.99 0,-8.8 6.53,-15.16 15.14,-15.16 8.69,0 14.98,6.4 14.98,15.16 0,0.64 -0.04,1.28 -0.16,1.87l-22.34 0zm14.63 -4.54c-0.51,-3.78 -3.59,-6.06 -7.22,-6.06 -3.61,0 -6.59,2.21 -7.32,6.06l14.54 0zm-26.3 10.72c-2.49,0 -3.22,-0.93 -3.22,-3.39l0 -12.93 4.62 0 0 -6.35 -4.62 0 0 -7.11 -7.31 0 0 7.11 -9.46 0 0 -2.9c0,-2.45 0.93,-3.38 3.49,-3.38l1.61 0 0 -5.64 -3.52 0c-6.05,0 -8.92,1.98 -8.92,8.04l0 3.91 -4.05 0 0 6.32 4.05 0 0 22.8 7.34 0 0 -22.8 9.46 0 0 14.28c0,5.94 2.26,8.52 8.2,8.52l3.77 0 0 -6.48 -1.44 0zm-41.96 6.48l0 -3.78c-2.14,2.62 -5.35,4.25 -9.18,4.25 -7.99,0 -14.04,-6.41 -14.04,-15.04 0,-8.56 6.31,-15.09 14.21,-15.09 3.72,0 6.87,1.64 9.01,4.19l0 -3.68 7.16 0 0 29.15 -7.16 0zm-0.07 -14.57c0,-4.91 -3.54,-8.34 -7.92,-8.34 -4.35,0 -7.89,3.5 -7.89,8.34 0,4.78 3.54,8.34 7.89,8.34 4.38,0 7.92,-3.44 7.92,-8.34zm198.44 -14.58l-19.85 41.04 -8.22 0 7.4 -15.33 -11.67 -25.71 8.43 0 7.5 17.22 8.21 -17.22 8.2 0z"/>
</svg>
