<svg xmlns="http://www.w3.org/2000/svg" viewBox="-2210 -400 5100 2000">
 <defs>
  <style type="text/css">
   <![CDATA[
    .fil0 {fill:#4D4D4D;fill-rule:nonzero}
    .fil1 {fill:#A0FFF4;fill-rule:nonzero}
   ]]>
  </style>
 </defs>
 <g id="Layer_x0020_1">
  <metadata id="CorelCorpID_0Corel-Layer"/>
  <g id="_105553299569760">
   <path class="fil0" d="M1982.06 1498.23l-3305.84 0c-487.46,0 -882.54,-395.71 -882.54,-883.84 0,-488.26 395.07,-883.84 882.54,-883.84l3305.84 0c487.07,0 882.27,395.58 882.27,883.84 0.26,487.87 -395.2,883.84 -882.27,883.84z"/>
   <path class="fil1" d="M-83.06 718.76c-4.66,76.49 -34.5,137.13 -87.66,181.91 -54.09,44.78 -124.03,67.17 -209.83,67.17 -99.79,0 -176.26,-30.78 -231.28,-93.29 -55.96,-61.57 -83,-148.32 -83,-260.26 0,-113.81 27.98,-201.5 83.93,-262.13 55.96,-60.64 137.09,-91.42 242.48,-91.42 85.8,0 152.94,21.46 203.3,62.5 49.43,41.98 76.47,100.75 81.13,177.24l-136.16 0c-5.59,-38.25 -21.45,-67.17 -46.63,-86.76 -25.18,-19.59 -58.75,-29.85 -101.65,-29.85 -60.62,0 -107.25,19.59 -138.02,58.77 -31.71,39.18 -47.56,96.09 -47.56,171.65 0,72.76 15.85,129.67 46.63,168.85 31.71,40.11 76.47,59.7 134.29,59.7 41.97,0 76.48,-10.26 103.52,-31.72 26.11,-21.45 43.83,-52.24 51.29,-92.35l135.22 0z"/>
   <path id="_1" class="fil1" d="M299.46 887.61c-16.79,26.12 -38.24,45.71 -65.29,58.77 -27.04,13.99 -58.75,20.52 -94.19,20.52 -48.49,0 -84.87,-13.99 -110.98,-41.05 -26.11,-27.05 -39.17,-66.23 -39.17,-116.61 0,-46.64 13.06,-82.09 39.17,-107.28 26.11,-24.26 69.01,-41.05 128.7,-50.37 13.99,-1.87 31.71,-4.67 53.16,-7.46 56.89,-6.53 84.87,-23.32 84.87,-48.51 0,-19.59 -6.53,-34.52 -18.65,-42.91 -13.06,-8.4 -33.57,-13.06 -62.48,-13.06 -27.05,0 -47.57,5.59 -61.56,15.86 -13.99,11.19 -21.44,26.12 -21.44,45.71l0 7.46 -124.04 0 0 -9.33c0,-50.37 17.72,-90.49 54.09,-119.41 35.44,-28.92 84.87,-43.84 148.28,-43.84 69.01,0 122.17,12.13 159.47,36.38 36.37,23.32 55.02,58.77 55.02,103.54l0 281.72c0,20.52 1.87,36.38 6.53,45.71 3.73,10.26 11.19,18.66 21.45,23.32l0 22.39 -138.02 0c-4.67,-8.39 -8.4,-17.72 -10.26,-27.98 -2.8,-10.26 -3.73,-21.46 -4.66,-33.58zm-1.87 -181.91c-21.45,10.26 -46.63,17.72 -74.61,24.25 -27.98,5.6 -42.9,9.33 -43.83,9.33 -23.31,6.53 -39.17,14.93 -48.49,25.19 -9.33,9.33 -13.99,23.32 -13.99,41.05 0,18.66 5.6,32.65 17.72,43.84 12.13,10.26 27.98,15.86 47.56,15.86 36.37,0 64.35,-10.26 84.86,-29.85 20.52,-20.52 30.78,-48.51 30.78,-83.02l0 -46.64z"/>
   <path id="_2" class="fil1" d="M540.07 949.17l0 -495.34 123.1 0 0 84.89c16.78,-33.58 37.3,-58.77 60.61,-74.63 23.32,-15.86 50.36,-24.25 82.07,-24.25 5.59,0 9.33,0 12.12,0 2.8,0.93 5.6,0.93 7.46,0.93l0 134.33 -43.83 0c-36.37,0 -63.41,9.33 -82.07,27.99 -17.72,19.59 -27.04,47.57 -27.04,83.96l0 262.13 -132.43 0z"/>
   <path id="_3" class="fil1" d="M1353.13 278.45l0 670.72 -125.9 0 0 -67.17c-18.65,28.92 -40.1,50.37 -64.35,63.43 -24.25,13.99 -52.23,20.52 -83.93,20.52 -61.56,0 -110.98,-24.26 -148.28,-72.76 -38.24,-47.57 -56.89,-111.01 -56.89,-189.37 0,-79.3 18.65,-143.66 56.89,-192.17 37.3,-49.44 86.73,-74.63 146.42,-74.63 31.71,0 60.62,6.53 84.87,20.52 25.18,13.06 46.63,32.65 62.48,57.83l0 -236.94 128.7 0zm-346.92 419.78c0,50.37 9.32,88.62 27.98,114.74 19.59,26.12 46.63,39.18 82.07,39.18 35.44,0 61.56,-13.06 80.2,-39.18 18.65,-26.12 27.98,-64.37 27.98,-114.74 0,-46.64 -9.33,-83.02 -28.91,-108.21 -19.58,-25.19 -46.63,-38.25 -82.07,-38.25 -33.57,0 -59.69,13.06 -78.34,39.18 -19.59,26.12 -28.91,61.57 -28.91,107.28z"/>
  </g>
 </g>
</svg>
