<svg xmlns="http://www.w3.org/2000/svg" viewBox="-5000 0 10200 1000">
 <defs>
  <style type="text/css">
   <![CDATA[
    .fil0 {fill:#CCCCCC}
   ]]>
  </style>
 </defs>
   <path class="fil0" d="M-4711.69 350.16l67.81 485.32 166.32 0 310.24 -600.79 -175.09 0 -131.68 278.57c-18.56,39.61 -34.64,75.46 -48.38,108.15 -2.58,-34.3 -5.46,-67.43 -8.67,-101.48l-27.09 -285.24 -265.8 0 276.81 218.65 -164.57 -103.09 0.1 -0.09zm6434.39 331.86c-36.39,32.79 -83.26,47.01 -157.8,47.01l-30.94 0 0 -390.42 30.94 0c74.49,0 119.55,13.25 157.8,47.74 39.85,35.37 63.48,90.22 63.48,146.88 0,56.66 -23.78,113.46 -63.48,148.74l0 0.05zm1652.21 -450.15c167.44,0 303.17,135.73 303.17,303.17 0,167.44 -135.73,303.17 -303.17,303.17 -167.44,0 -303.17,-135.73 -303.17,-303.17 0,-167.44 135.73,-303.17 303.17,-303.17zm1757.88 97.97c-20.17,0 -36.39,-16.56 -36.39,-37.12 0,-20.8 16.08,-37.37 36.39,-37.37 19.54,0 35.76,16.81 35.76,37.37 0,20.41 -16.22,37.12 -35.76,37.12zm0 -82.77c-25.24,0 -45.41,20.32 -45.41,45.41 0,25.24 20.41,45.41 45.41,45.41 24.75,0 44.92,-20.41 44.92,-45.41 0,-24.89 -20.17,-45.41 -44.92,-45.41zm-4.58 42.58l-2.34 0 0 -13.5 2.48 0c6.19,0 9.3,2.24 9.3,6.67 0,4.58 -3.21,6.92 -9.4,6.92l-0.05 -0.09zm21.63 -7.07c0,-10.37 -6.92,-15.98 -19.54,-15.98l-16.81 0 0 51.98 12.37 0 0 -20.17 14.61 20.17 15.49 0 -17.34 -21.53c7.31,-1.85 11.25,-7.31 11.25,-14.47l-0.05 0zm-312.33 227.81l-33.42 0 0 -178.94 35.27 0c71.91,0 110.88,30.2 110.88,87.59 0,59.29 -38.97,91.35 -112.73,91.35zm231.07 -97.48c0,-110.64 -76,-174.22 -208.9,-174.22l-170.9 0 0 590.26 115.22 0 0 -237.2 15.1 0 159.26 237.2 141.57 0 -186 -248.61c86.86,-17.83 134.66,-77.07 134.66,-167.44zm-782.31 416l326.56 0 0 -99.87 -211.48 0 0 -159.5 203.44 0 0 -99.87 -203.44 0 0 -131.05 211.48 0 0 -99.87 -326.56 0 0 590.27 0 -0.1zm-336.59 -193.8l-157.65 -396.46 -125.74 0 250.6 605.37 62.02 0 255.04 -605.37 -124.86 0 -159.41 396.46zm-1388.89 -101.09c0,173.73 136.36,308.24 311.7,308.24 49.64,0 92.07,-9.79 144.4,-34.54l0 -135.48c-46.04,46.04 -86.86,64.6 -139.09,64.6 -115.95,0 -198.38,-84.13 -198.38,-203.69 0,-113.22 85.02,-202.71 193.02,-202.71 54.81,0 96.51,19.44 144.4,66.45l0 -135.48c-50.37,-25.63 -92.08,-36.15 -141.67,-36.15 -174.36,0 -314.33,137.24 -314.33,308.72l-0.05 0.05zm-206.17 -68.94c-69.18,-25.62 -89.44,-42.58 -89.44,-74.24 0,-37.27 36.24,-65.48 85.89,-65.48 34.54,0 62.85,14.13 93.05,47.65l60.11 -78.68c-49.5,-43.46 -108.88,-65.57 -173.48,-65.57 -104.31,0 -184.15,72.64 -184.15,169.05 0,81.55 37.12,123.01 145.13,162.08 45.16,15.83 68.06,26.35 79.7,33.67 23,14.95 34.64,36.24 34.64,60.99 0,47.89 -38.09,83.16 -89.59,83.16 -54.81,0 -99,-27.48 -125.59,-78.83l-74.24 71.76c52.95,77.7 116.68,112.34 204.42,112.34 119.56,0 203.54,-79.7 203.54,-193.9 0,-93.78 -38.88,-136.36 -169.88,-184.15l-0.1 0.15zm-396.56 -226.44l115.07 0 0 590.26 -115.07 0 0 -590.26zm-370.01 0l-169.29 0 0 590.26 168.42 0c89.35,0 153.94,-21.15 210.61,-68.06 67.33,-55.83 107.18,-139.82 107.18,-226.83 0,-174.21 -130.17,-295.37 -316.76,-295.37l-0.15 0zm-812.12 441.38c-0.39,-0.39 -0.73,-0.73 -1.12,-0.98 9.16,-5.94 15.35,-16.22 15.35,-28.11l0 -43.16c0,-18.56 -14.96,-33.52 -33.52,-33.52l-97.15 0c-30.2,0 -53.1,8.92 -69.67,22.41 -4.58,-13 -16.56,-22.41 -31.18,-22.41l-97 0c-26.74,0 -47.74,6.68 -63.87,17.59 -5.8,-10.37 -16.22,-17.59 -28.84,-17.59l-161.74 0c-13.01,0 -24.02,7.55 -29.57,18.42 -2.34,-1.61 -3.94,-3.46 -6.43,-4.97 -23.53,-12.62 -48.38,-13.5 -74.1,-13.5l-111.85 0c-13.11,0 -24.02,7.65 -29.57,18.56 -17.1,-11.01 -40.83,-18.56 -74.74,-18.56l-154.92 0c-9.3,0 -18.17,3.85 -24.5,10.62l-36.64 39.61 -35.27 -39.12c-6.33,-7.16 -15.34,-11.15 -24.89,-11.15l-194.77 0c-18.56,0 -33.42,14.95 -33.42,33.42l0 202.81c0,18.56 14.96,33.42 33.42,33.42l191.94 0c9.41,0 18.17,-3.85 24.51,-10.76l36.98 -39.95 35.03 39.46c6.33,7.16 15.49,11.25 24.99,11.25l94.17 0c18.56,0 33.52,-14.96 33.52,-33.42l0 -34.64 26.99 0c32.79,0 56.42,-6.67 73.61,-16.95l0 51.59c0,18.41 14.96,33.42 33.42,33.42l48.76 0c18.56,0 33.52,-14.96 33.52,-33.42l0 -40.73 18.32 0c4.43,0 7.55,0.15 9.89,0.24 0.15,3.61 0.15,8.04 0.15,10.91l0 29.57c0,18.41 15.1,33.42 33.42,33.42l48.62 0c5.46,0 10.38,-1.46 14.86,-3.7 4.58,2.24 9.41,3.7 14.71,3.7l161.74 0c5.31,0 10.04,-1.46 14.61,-3.6 4.34,2.09 9.16,3.6 14.47,3.6l94.42 0c30.06,0 54.56,-7.31 72.88,-20.31 5.07,11.89 16.95,20.31 30.69,20.31l94.41 0c68.69,0 109.52,-36.39 109.52,-97.39 0,-28.21 -7.55,-49.25 -24.11,-66.45l-0.05 0.05zm-1080.9 29.33l74.49 82.67 0 -162.62 -74.49 79.94zm600.79 -416.24l-33.28 80.82 66.94 0 -33.67 -80.82zm-1150.32 0l-32.93 80.82 66.06 0 -33.18 -80.82 0.05 0zm763.6 11.5c-5.7,-3.22 -14.61,-3.7 -22.9,-3.7l-59.63 0 0 44.92 58.9 0c9.31,0 17.2,-0.15 23.87,-4.09 6.19,-3.22 10.04,-10.38 10.04,-19.29 0,-8.67 -3.85,-14.96 -10.13,-17.93l-0.15 0.1zm207.63 348.72c-5.94,-3.46 -14.61,-3.7 -23.14,-3.7l-59.63 0 0 45.55 58.9 0c9.4,0 17.44,-0.24 24.02,-4.09 6.33,-3.85 10.04,-10.77 10.04,-19.44 -0.15,-8.67 -3.85,-14.96 -10.13,-18.32l-0.05 0zm-235.84 -3.7l-63.24 0 0 51.59 62.6 0c18.56,0 30.2,-9.16 30.2,-26.75 0,-17.83 -12.13,-24.89 -29.57,-24.89l0 0.05zm-301.32 0l-121.41 0 0 36.88 106.3 0 0 41.46 -106.3 0 0 40.34 119.02 0 55.3 -59.53 -52.96 -59.05 0.05 -0.1zm1044.17 -424.48l-49.64 0c-18.56,0 -33.42,14.96 -33.42,33.42l0 20.9 -22.99 -38.24c-6.19,-10.04 -16.96,-16.08 -28.6,-16.08l-73.86 0c-18.56,0 -33.42,14.96 -33.42,33.42l0 28.45 -17.83 -41.7c-5.31,-12.23 -17.35,-20.31 -30.69,-20.31l-72.64 0c-7.31,0 -14.37,2.34 -19.93,6.67 -5.56,-4.19 -12.52,-6.67 -20.02,-6.67l-46.77 0c-39.85,0 -69.28,9.65 -90.96,28.45 -2.48,-15.98 -15.74,-28.45 -32.4,-28.45l-49.5 0c-13.25,0 -24.26,7.8 -29.82,18.8 -2.09,-1.46 -3.7,-3.36 -5.94,-4.72 -22.75,-13.11 -46.67,-14.22 -75.46,-14.22l-111.52 0c-6.33,0 -11.74,2.24 -16.81,5.21 -4.97,-2.97 -10.52,-5.21 -16.71,-5.21l-161.84 0c-6.82,0 -12.76,2.48 -18.07,5.94 -5.31,-3.46 -11.25,-5.94 -18.07,-5.94l-80.82 0c-13.35,0 -25.48,8.04 -30.69,20.41l-28.84 67.81 -31.67 -68.79c-5.56,-11.89 -17.44,-19.44 -30.45,-19.44l-79.07 0c-18.41,0 -33.42,14.96 -33.42,33.42l0 29.08 -18.17 -42.43c-5.31,-12.23 -17.34,-20.31 -30.79,-20.31l-71.91 0c-13.35,0 -25.48,8.04 -30.79,20.31l-86.76 202.81c-4.43,10.38 -3.36,22.17 2.73,31.67 6.19,9.4 16.71,15.1 27.96,15.1l52.71 0c13.49,0 25.63,-8.19 30.79,-20.66l10.28 -24.6 56.17 0 10.04 24.5c5.07,12.52 17.44,20.66 30.94,20.66l98.5 0c18.56,0 33.42,-14.96 33.42,-33.42l0 -0.73 6.33 14.37c5.31,12.13 17.44,19.93 30.55,19.93l42.58 0c13.25,0 25.24,-7.8 30.69,-19.93l6.43 -14.37 0 0.73c0,18.56 14.96,33.42 33.42,33.42l49.74 0c6.82,0 12.76,-2.58 18.07,-6.04 5.31,3.46 11.15,6.04 18.07,6.04l161.84 0c6.33,0 11.89,-2.24 16.71,-5.21 5.07,2.97 10.52,5.21 16.81,5.21l48.52 0c18.56,0 33.42,-14.96 33.42,-33.42l0 -40.34 18.56 0c4.19,0 7.16,0.15 9.4,0.24 0.24,3.46 0.15,7.55 0.15,10.28l0 4.43 0.24 25.63c0.15,18.32 15.1,33.28 33.42,33.28l48.86 0c5.46,0 10.52,-1.76 14.96,-4.09 4.72,2.34 9.65,4.09 15.2,4.09l49.5 0c16.22,0 29.09,-11.74 32.3,-26.99 27.48,23.14 66.06,26.99 87.74,26.99l56.81 0c13.49,0 25.72,-8.28 30.79,-20.9l9.89 -24.26 55.83 0 10.28 24.6c5.21,12.37 17.34,20.65 30.94,20.65l98.61 0c18.56,0 33.42,-14.96 33.42,-33.42l0 -32.06 29.72 49.26c6.04,10.04 16.95,16.22 28.69,16.22l68.69 0c18.56,0 33.42,-14.96 33.42,-33.42l0 -202.81c0,-18.41 -15.1,-33.42 -33.42,-33.42l-0.44 0.19zm-1077.29 236.23l-49.74 0 -0.15 -158.77 -70.3 158.77 -42.58 0 -70.4 -158.87 0 158.87 -98.6 0 -18.56 -45.16 -100.85 0 -18.8 45.16 -52.71 0 86.86 -202.81 71.91 0 82.53 192.04 0 -192.04 79.07 0 63.48 137.48 58.17 -137.48 80.82 0c0,0 0,202.81 0,202.81l-0.15 0zm197.99 -160.48l-113.46 0 0 36.49 110.74 0 0 41.56 -110.74 0 0 40.58 113.46 0 0 41.94 -161.84 0 0 -202.81 161.84 0 0 42.19 0 0.05zm194.14 66.45c10.52,4.09 19.69,11.25 24.02,17.1 6.92,10.04 8.04,19.05 8.04,37.12l0 39.7 -48.87 0 -0.24 -25.63c0,-12.13 1.12,-29.72 -7.55,-39.46 -7.06,-7.06 -17.83,-8.67 -35.37,-8.67l-51.98 0 0 73.76 -48.52 0 0 0 0 -202.71 111.37 0c24.75,0 43.07,0.63 58.66,9.65 15.35,9.01 24.5,22.26 24.5,44.92 0,32.3 -21.54,49.01 -34.15,54.08l0.09 0.15zm111.71 94.02l-49.5 0 0 -202.81 49.5 0 0 202.81zm573.45 0l-68.69 0 -91.93 -152.19 0 152.19 -98.5 0 -18.95 -45.16 -100.75 0 -18.17 45.16 -56.8 0c-23.53,0 -53.2,-5.21 -70.15,-22.41 -17.2,-17.2 -25.97,-40.58 -25.97,-77.37 0,-30.06 5.31,-57.54 25.97,-79.31 15.59,-16.22 40.09,-23.63 73.52,-23.63l46.91 0 0 43.45 -45.89 0c-17.69,0 -27.72,2.58 -37.27,11.99 -8.28,8.52 -13.83,24.6 -13.83,45.89 0,21.68 4.33,37.37 13.35,47.5 7.55,8.04 21.05,10.52 33.76,10.52l21.78 0 68.45 -159.5 72.64 0 82.04 191.8 0 -191.8 73.86 0 85.16 141.19 0 -141.19 49.65 0 0 202.81 -0.15 0.05zm-432.46 -125.84l-21.05 49.01c-4.72,0 -7.8,-0.49 -9.55,-0.98 -1.61,-2.97 -3.85,-9.65 -3.85,-23.63 0,-13.98 3.36,-21.29 3.85,-22.02 1.36,-1.37 2.48,-2.49 13.83,-2.49l16.71 0 0.05 0.1zm-313.21 406.74l-60.5 0 0 68.06 -94.17 0 -59.78 -67.08 -62.02 67.08 -191.94 0 0 -202.81 194.77 0 59.63 66.45 61.63 -66.45 154.82 0c38.49,0 81.65,10.77 81.65,66.94 0,56.32 -41.94,67.91 -84.38,67.81l0.29 0zm267.9 -26.11c10.76,3.94 19.44,11.15 23.63,17.1 6.92,9.89 7.8,19.05 8.04,36.98l0 40.24 -48.62 0 0 -25.48c0,-12.13 1.12,-30.21 -7.94,-39.71 -6.92,-7.16 -17.68,-8.91 -35.51,-8.91l-51.74 0 0 74 -48.62 0 0 -202.81 111.86 0c24.5,0 42.33,0.98 58.27,9.55 15.34,9.16 24.99,21.92 24.99,44.92 0,32.4 -21.68,49.01 -34.4,54.07l0.05 0.05zm222.98 -66.55l-113.46 0 0 36.88 110.64 0 0 41.46 -110.64 0 0 40.24 113.46 0.24 0 42.09 -161.74 0 0 -202.81 161.74 0 0 41.95 0 -0.05zm123.5 160.62l-94.42 0 0 -43.55 93.93 0c9.16,0 15.74,-1.12 19.78,-5.07 3.36,-3.12 5.7,-7.8 5.7,-13.25 0,-5.8 -2.48,-10.52 -5.94,-13.35 -3.7,-3.11 -8.77,-4.43 -17.2,-4.43 -45.31,-1.46 -101.96,1.37 -101.96,-62.75 0,-29.57 18.41,-60.41 69.28,-60.41l97 0 0 43.17 -88.86 0c-8.91,0 -14.61,0.39 -19.44,3.7 -5.31,3.36 -7.31,8.19 -7.31,14.62 0,7.65 4.43,12.76 10.52,15.1 5.21,1.85 10.62,2.34 18.8,2.34l26.11 0.73c26.21,0.73 44.28,5.21 55.2,16.32 9.55,9.79 14.61,22.17 14.61,42.92 0,43.7 -27.23,64.11 -75.85,63.87l0.05 0.05zm197.99 0l-94.42 0 0 -43.55 93.93 0c9.16,0 15.74,-1.12 19.68,-5.07 3.36,-3.12 5.7,-7.8 5.7,-13.25 0,-5.8 -2.48,-10.52 -5.94,-13.35 -3.7,-3.11 -8.67,-4.43 -17.2,-4.43 -45.31,-1.46 -102.11,1.37 -102.11,-62.75 0,-29.57 18.41,-60.41 69.28,-60.41l97.14 0 0 43.17 -88.86 0c-8.92,0 -14.71,0.39 -19.44,3.7 -5.31,3.36 -7.31,8.19 -7.31,14.62 0,7.65 4.58,12.76 10.52,15.1 5.21,1.85 10.62,2.34 18.95,2.34l25.96 0.73c26.36,0.73 44.43,5.21 55.3,16.32 9.4,9.79 14.47,22.17 14.47,42.92 0,43.7 -27.23,64.11 -75.85,63.87l0.2 0.05zm-2195.07 -275.74c0,-170.9 -138.46,-309.36 -309.36,-309.36 -74.1,0 -141.57,25.87 -194.92,69.42 40.73,39.22 71.66,88.37 88.37,143.91l-25.72 0c-16.08,-49.35 -44.28,-92.95 -81.17,-127.83 -36.49,34.88 -64.6,78.58 -80.67,127.69l-25.63 0c16.56,-55.2 47.01,-104.45 87.35,-143.52 -53.2,-43.07 -120.28,-69.67 -194.04,-69.67 -170.9,0 -309.36,138.46 -309.36,309.36 0,170.9 138.46,309.36 309.36,309.36 73.61,0 140.84,-26.6 194.04,-69.67 -40.34,-39.12 -70.79,-88.37 -87.35,-143.52l25.63 0c16.07,49.11 44.19,92.95 80.67,127.69 36.88,-34.88 65.09,-78.44 81.17,-127.83l25.72 0c-16.71,55.54 -47.65,104.69 -88.37,143.91 53.34,43.56 120.77,69.43 194.92,69.43 170.9,0 309.36,-138.46 309.36,-309.36zm-227.31 72.54l21.39 -114.48 26.99 0 2.83 11.25c4.82,-5.7 14.13,-11.25 29.81,-11.25l-8.53 29.81c-7.65,0 -22.17,-2 -31.42,32.3l-9.65 52.32 -31.42 0 0 0.05zm-278.18 0.1l21.15 -113.37 26.74 0 2.83 11.16c4.82,-5.56 13.98,-11.16 29.57,-11.16l-8.04 29.96c-7.55,0 -22.41,-2.34 -31.57,31.57l-9.55 51.83 -31.18 0 0.05 0zm193.8 -111.37l-4.82 24.75c7.55,-0.87 27.96,-3.94 38.73,-3.6 10.76,0.39 22.75,-1.12 19.19,15.98 -8.04,0.73 -63.87,-7.94 -72.64,39.85 -3.7,23.63 16.71,35.52 32.69,34.78 15.98,-0.88 20.31,-2.83 25.87,-6.82l3.94 6.43 29.09 0 12.37 -62.26c3.22,-15.59 8.43,-53.1 -43.94,-53.1 -9.65,0.39 -20.41,0 -40.73,3.94l0.24 0.05zm47.89 60.26c-5.21,-0.73 -16.81,-3.94 -26.74,2.73 -10.04,6.82 -12.86,18.81 -2.48,22.75 10.04,3.85 24.75,-2.73 26.74,-13.25l2.48 -12.37 0 0.15zm195.11 -50.23c-5.94,-4.33 -9.65,-13.49 -24.36,-13.49 -17.2,0 -43.94,-3.22 -59.05,48.62 -10.13,34.64 10.38,66.21 32.69,66.21 10.37,-0.49 20.8,-4.82 27.09,-9.16l3.94 9.16 33.52 0 27.09 -145.28 -32.79 0 -8.28 43.94 0.15 0zm-11.25 46.77c3.21,-10.38 1.46,-23.39 -2,-27.96 -9.65,-12.86 -31.67,-2.73 -38.34,22.26 -4.33,16.32 5.21,28.69 15.98,28.69 11.5,0 18.7,-9.16 24.26,-23.14l0.1 0.15zm-254.16 -51.45c-8.04,-4.82 -13.5,-5.55 -23.87,-5.55 -10.38,0 -33.52,9.89 -38,38 -5.21,33.03 17.59,49.5 49.5,38.73l9.16 27.96c-10.37,4.82 -20.8,7.16 -38,7.16 -32.3,0 -67.43,-28.69 -51.49,-87.01 11.74,-42.92 48.62,-58.66 70.15,-57.78 25.48,0.88 34.78,9.55 42.68,18.32l-20.31 20.41 0.19 -0.24zm-504.37 -5.21l-4.82 24.75c7.55,-0.88 27.96,-3.95 38.73,-3.61 10.77,0.39 22.65,-1.12 19.2,15.98 -8.04,0.73 -63.87,-7.94 -72.64,39.85 -3.61,23.63 16.71,35.52 32.79,34.78 15.98,-0.88 20.31,-2.83 25.87,-6.82l3.95 6.43 29.08 0 12.37 -62.26c3.22,-15.59 8.43,-53.1 -43.8,-53.1 -9.65,0.39 -20.41,0 -40.73,3.94l0 0.05zm47.89 60.26c-5.31,-0.73 -16.81,-3.94 -26.84,2.73 -10.04,6.82 -12.76,18.81 -2.34,22.75 10.04,3.85 24.75,-2.73 26.74,-13.25l2.48 -12.37 -0.05 0.15zm-82.28 51.11l25.87 -138.11 -51.1 0 -37.85 83.8 -5.94 -83.8 -49.89 0 -26.75 138.11 31.18 0 19.05 -99.72 8.43 99.72 29.57 0 43.56 -97.39 -18.32 97.39 32.3 0 -0.09 0zm201.79 -87.74l7.16 -23.14c-14.71,-5.56 -26.35,-4.33 -30.69,-4.33 -4.33,0 -41.7,-0.49 -47.4,27.09 -4.33,21.14 3.36,29.81 10.77,33.03 11.98,5.31 18.8,10.04 25.14,13.25 7.94,3.94 6.43,17.2 -3.94,17.2 -4.82,0 -25.63,2.34 -41.07,-2.83l-4.33 23.53c14.37,4.09 25.87,4.09 36.73,4.09 7.55,0 44.67,2 49.89,-32.3 2.48,-16.71 -4.82,-24.36 -10.76,-27.96 -5.94,-3.94 -15.98,-9.55 -22.41,-12.37 -6.43,-2.73 -11.15,-13.5 0.39,-16.71 7.16,-0.73 22.02,-0.73 30.69,1.61l-0.15 -0.15zm164.47 36.63c3.6,-18.31 11.89,-63.87 -42.68,-63.87 -50.23,0 -56.66,49.89 -57.78,57.05 -1.22,7.16 -2.09,57.93 51.83,57.93 13.25,0.39 32.3,-1.12 39.85,-5.21l4.82 -23.53c-4.82,1.12 -22.75,2.73 -35.13,2.73 -12.37,0 -32.3,0.88 -28.69,-25.14l67.81 0 -0.05 0.05zm-65.82 -20.8l38.73 0c2.09,-11.16 -1.61,-20.8 -13.98,-20.8 -12.37,0 -21.14,6.43 -24.75,20.8zm-69.08 -71.76l31.18 0 -6.43 30.3 16.71 0 -5.56 24.75 -15.98 0 -8.77 46.28c-1.61,8.77 -0.88,16.81 17.2,13.98l-2 23.14c-6.82,4.33 -15.98,5.56 -23.14,5.56 -7.16,0 -30.69,-4.43 -24.75,-35.52l21.53 -108.54 0 0.05zm-1239.38 371.72l67.33 -146.64 135.48 0 11.65 146.64 162.86 0 -70.4 -600.79 -181.91 0 -292.65 600.79 167.69 0 -0.05 0zm163.45 -371.23c6.43,-13.5 12.76,-28.84 18.95,-44.92 1.37,14.22 2.24,27.57 3.12,39.36l9.41 102.6 -76.1 0 44.67 -97 -0.05 -0.05zm-734.52 335.96c36.64,27.33 101.33,43.94 172.51,43.94 148.25,0 247.48,-83.65 247.48,-208.27 0,-68.06 -39.46,-121.89 -121.26,-164.72 -45.65,-25.48 -73.37,-42.82 -73.37,-64.6 0,-20.17 21.39,-42.09 71.67,-42.09 49.25,0 87.01,19.2 93.93,23l17.83 9.89 49.98 -134.12 -13.25 -7.16c-37.27,-20.66 -83.65,-30.55 -141.91,-30.55 -141.82,0 -240.81,82.67 -240.81,201.35 0,85.99 67.57,133.87 126.96,165.83 55.93,28.84 66.94,45.41 66.94,64.35 0,35.91 -39.12,49.01 -72.49,49.01 -43.56,0 -88.72,-12.62 -124.48,-33.67l-17.69 -10.76 -52.86 130.42 10.77 8.43 0.05 -0.29zm-91.83 35.27l113.95 -600.79 -156.43 0 -114.34 600.79 156.77 0 0.05 0z"/>
</svg>
