<svg id="svg-venmo-text" xmlns="http://www.w3.org/2000/svg" viewBox="1800 -1600 5000 5000">
  <path fill="currentColor" d="M-235.73 1244.24l-167.69 -1349.47 -692.48 65.76 317.14 1896.48 790.87 0c346.24,-455.84 772.81,-1105.04 772.81,-1604.74 0,-156.7 -32.81,-280.77 -105.77,-401.18l-630.63 127.67c40.13,83.94 65.76,185.93 65.76,335.62 0,273.51 -193.37,674.64 -350.02,929.85zm9162.74 -1385.95c-754.63,0 -1082.57,580.1 -1082.57,1200.02 0,470.48 189.52,846.17 761.77,846.17 772.76,0 1097.21,-634.56 1097.21,-1247.3 0,-463.27 -207.83,-798.89 -776.41,-798.89zm-397.35 1229.06c0,-240.64 54.64,-711.07 320.73,-711.07 120.17,0 160.3,109.37 160.3,269.85 0,240.64 -58.31,736.8 -309.81,736.8 -120.17,0 -171.22,-113.03 -171.22,-295.59zm-3532.77 -1196.12l-309.74 1965.78 677.82 0 215.15 -1378.48c58.31,-29.28 145.66,-69.35 233.2,-69.35 65.58,0 120.3,21.83 120.3,120.46 0,25.39 -7.26,65.46 -10.8,98.33l-193.2 1229.05 674.3 0 214.9 -1378.48c62.23,-32.89 145.92,-69.35 229.68,-69.35 65.75,0 120.46,21.83 120.46,120.41 0,25.44 -7.48,65.51 -11.04,98.38l-193.13 1229.05 674.43 0 207.58 -1313.04c10.99,-69.11 22.02,-174.94 22.02,-247.83 0,-262.72 -120.48,-437.85 -466.65,-437.85 -251.44,0 -433.78,76.73 -626.91,215.22 -69.4,-124.01 -207.82,-215.22 -419.25,-215.08 -244.24,0 -426.4,98.57 -561.26,196.9l-18.18 -164.09 -579.69 0zm-2060.2 0l-309.76 1965.78 678.02 0 215.02 -1378.48c58.31,-29.28 145.85,-69.35 233.21,-69.35 65.75,0 120.46,21.83 120.46,109.37 0,36.48 -11.04,102.16 -14.63,134.86l-189.54 1203.61 674.25 0 207.82 -1313.04c10.97,-69.11 22.01,-174.87 22.01,-247.83 0,-262.72 -120.46,-437.85 -463.16,-437.78 -258.64,0 -440.97,98.57 -579.39,189.76l-7.43 -156.88 -586.89 0zm-981 -32.94c-721.68,0 -1071.7,627.43 -1071.7,1218.26 0,455.89 215.14,820.54 816.48,820.54 237.04,0 481.22,-51.12 637.94,-127.67l83.76 -568.88c-222.41,113.04 -393.52,156.71 -572.24,156.71 -164.1,0 -287.86,-87.35 -287.86,-309.93 371.85,-3.67 1013.22,-156.71 1013.22,-656.41 0,-309.99 -222.23,-532.64 -619.59,-532.64zm69.19 587.3c0,182.33 -320.8,240.64 -448.23,240.64 18.23,-218.8 185.75,-371.84 313.35,-371.84 72.96,0 134.88,43.67 134.88,131.2z"/>
</svg>
