<svg id="svg-afterpay-text" xmlns="http://www.w3.org/2000/svg" viewBox="550 1000 500 450" fill="currentColor">
  <path d="M1672.86 1129.43l-49.13 -28.16 -49.78 -28.57c-32.97,-18.95 -74.11,4.81 -74.11,42.93l0 6.37c0,3.54 1.85,6.84 4.98,8.52l23.06 13.21c6.49,3.71 14.49,-0.98 14.49,-8.41l0 -15.18c0,-7.54 8.05,-12.23 14.54,-8.52l45.49 26.13 45.25 26.02c6.43,3.71 6.43,13.21 0,16.92l-45.25 26.02 -45.49 26.19c-6.49,3.65 -14.54,-1.04 -14.54,-8.57l0 -7.54c0,-38.07 -41.2,-61.94 -74.17,-42.94l-49.78 28.63 -49.13 28.1c-33.09,19.06 -33.09,66.98 0,86.05l49.13 28.1 49.78 28.63c32.97,18.89 74.17,-4.87 74.17,-42.93l0 -6.43c0,-3.54 -1.91,-6.84 -5.04,-8.52l-23.18 -13.21c-6.37,-3.71 -14.31,0.98 -14.31,8.4l0 15.18c0,7.54 -8.11,12.23 -14.6,8.58l-45.48 -26.19 -45.2 -26.02c-6.61,-3.71 -6.61,-13.21 0,-16.92l45.2 -26.02 45.48 -26.13c6.49,-3.71 14.6,0.98 14.6,8.52l0 7.53c0,38.13 41.14,61.94 74.11,42.94l49.78 -28.57 49.14 -28.16c33.09,-19.18 33.09,-66.98 0,-85.99l-0 0zm-968.67 25.9c0,0 10.54,-19.64 36.62,-19.64 11.07,0 18.08,3.82 18.08,3.82l0 43.11c0,0 -15.53,-9.68 -30.02,-7.7 -14.26,2.02 -23.3,15.06 -23.3,32.74l0 99.89 -42.94 0 0 -168.73 41.43 0 0.11 16.51 0 0zm400.81 152.39l0 -21.9c-12.46,15.18 -31.06,24.63 -53.2,24.63 -46.3,0 -81.41,-37.14 -81.41,-87.15 0,-49.6 36.62,-87.43 82.34,-87.43 21.61,0 39.81,9.5 52.27,24.28l0 -21.32 41.43 0 0 168.91 -41.43 0zm-0.41 -84.43c0,-28.45 -20.52,-48.32 -45.78,-48.32 -25.38,0 -45.89,20.28 -45.89,48.32 0,27.7 20.51,48.33 45.89,48.33 25.26,0 45.78,-19.93 45.78,-48.33zm-325.48 153.32l0 -237.8 41.43 0 0 21.9c12.46,-15.53 31.06,-25.03 53.2,-25.03 45.66,0 81.41,37.55 81.41,87.15 0,49.6 -36.45,87.44 -82.34,87.44 -21.33,0 -38.77,-8.4 -51.05,-22.6l0 88.83 -42.65 0 0 0.11zm133.51 -153.37c0,-27.29 -20.52,-48.32 -45.78,-48.32 -25.32,0 -45.89,20.33 -45.89,48.32 0,27.76 20.57,48.39 45.89,48.39 25.26,0 45.78,-20.92 45.78,-48.39zm-400.63 11.12c3.07,24.98 20.92,39.23 43.57,39.23 17.96,0 31.76,-8.4 39.87,-21.9l43.57 0c-10.14,35.81 -42.24,58.7 -84.37,58.7 -50.99,0 -86.8,-35.81 -86.8,-86.86 0,-50.99 37.84,-87.84 87.73,-87.84 50.35,0 86.8,37.08 86.8,87.84 0,3.71 -0.23,7.42 -0.93,10.83l-129.45 0 0 0zm84.77 -26.3c-2.95,-21.9 -20.8,-35.11 -41.83,-35.11 -20.92,0 -38.19,12.81 -42.42,35.11l84.25 0zm-152.39 62.11c-14.43,0 -18.66,-5.39 -18.66,-19.64l0 -74.92 26.77 0 0 -36.8 -26.77 0 0 -41.2 -42.36 0 0 41.2 -54.82 0 0 -16.8c0,-14.2 5.39,-19.59 20.22,-19.59l9.33 0 0 -32.68 -20.4 0c-35.06,0 -51.69,11.47 -51.69,46.59l0 22.66 -23.47 0 0 36.62 23.47 0 0 132.11 42.53 0 0 -132.11 54.82 0 0 82.74c0,34.42 13.09,49.37 47.52,49.37l21.84 0 0 -37.55 -8.34 0zm-243.14 37.55l0 -21.9c-12.4,15.18 -31,24.63 -53.19,24.63 -46.3,0 -81.36,-37.14 -81.36,-87.15 0,-49.6 36.56,-87.43 82.34,-87.43 21.56,0 39.81,9.5 52.21,24.28l0 -21.32 41.49 0 0 168.91 -41.49 0zm-0.41 -84.43c0,-28.45 -20.51,-48.32 -45.89,-48.32 -25.21,0 -45.72,20.28 -45.72,48.32 0,27.7 20.52,48.33 45.72,48.33 25.38,0 45.89,-19.93 45.89,-48.33zm1149.88 -84.48l-115.02 237.8 -47.63 0 42.88 -88.83 -67.62 -148.97 48.85 0 43.46 99.78 47.57 -99.78 47.52 0 -0 0z"/>
</svg>
