<svg id="svg-check" xmlns="http://www.w3.org/2000/svg" viewBox="480 913 340 340" fill="currentColor">
  <path d="M700.89 1046.85l-59.48 59.47 -34.66 -34.66c-4.35,-4.35 -11.41,-4.35 -15.76,0 -4.35,4.35 -4.35,11.41 0,15.76l42.54 42.54c2.18,2.18 5.03,3.26 7.88,3.26 2.85,0 5.7,-1.09 7.88,-3.26l67.35 -67.35c4.35,-4.35 4.35,-11.41 0,-15.76 -4.35,-4.35 -11.41,-4.35 -15.76,0zm-47.07 -131.17c-92.17,0 -167.16,74.99 -167.16,167.16 0,92.17 74.99,167.16 167.16,167.16 92.17,0 167.16,-74.99 167.16,-167.16 0,-92.17 -74.99,-167.16 -167.16,-167.16zm0 312.03c-79.88,0 -144.87,-64.98 -144.87,-144.87 0,-79.89 64.99,-144.87 144.87,-144.87 79.88,0 144.87,64.98 144.87,144.87 0,79.89 -64.99,144.87 -144.87,144.87z"/>
</svg>
