<svg id="svg-close" viewBox="-0.125 -0.125 5 5" fill="currentColor" xmlns="http://www.w3.org/2000/svg">
<g clip-path="url(#clip0_9_3)">
<path fill-rule="evenodd" clip-rule="evenodd" d="M0.685716 0.685716C-0.25263 1.62406 -0.25263 3.13985 0.685716 4.0782C1.62406 5.01654 3.13985 5.01654 4.0782 4.0782C5.01654 3.13985 5.01654 1.62406 4.0782 0.685716C3.13985 -0.25263 1.62406 -0.25263 0.685716 0.685716ZM1.40752 1.58797L1.62406 1.37143L2.41805 2.12932L3.17594 1.33534L3.39248 1.55188L2.63459 2.34587L3.39248 3.10376L3.17594 3.3203L2.41805 2.52632L1.62406 3.3203L1.40752 3.10376L2.16542 2.34587L1.40752 1.55188V1.58797ZM0.830077 0.793987C-0.0360886 1.66015 -0.0360886 3.06767 0.830077 3.89775C1.69624 4.76391 3.06767 4.76391 3.93384 3.89775C4.8 3.03158 4.8 1.66015 3.93384 0.793987C3.06767 -0.0721789 1.69624 -0.0721789 0.830077 0.793987Z"/>
</g>
<defs>
</defs>
</svg>
