<svg id="svg-coinbase-text" xmlns="http://www.w3.org/2000/svg" viewBox="3220 -1000 4000 4000">
  <path fill="currentColor" d="M2507.07 451.06c-410.06,0 -730.47,311.28 -730.47,727.99 0,416.71 312.31,725.33 730.47,725.33 418.15,0 735.9,-313.94 735.9,-727.99 0,-411.39 -312.31,-725.33 -735.9,-725.33zm2.66 1152.91c-233.52,0 -404.63,-181.36 -404.63,-424.91 0,-246.32 168.35,-427.57 401.87,-427.57 236.28,0 407.3,184.02 407.3,427.57 0,243.56 -171.02,424.91 -404.53,424.91zm822.79 -836.3l203.7 0 0 1109.67 325.84 0 0 -1399.22 -529.54 0 0 289.56zm-2375.94 -16.19c171.11,0 306.88,105.54 358.42,262.5l344.89 0c-62.5,-335.56 -339.46,-562.93 -700.55,-562.93 -410.06,0 -730.47,311.28 -730.47,727.99 0,416.71 312.31,725.33 730.47,725.33 352.99,0 635.38,-227.36 697.89,-565.69l-342.13 -0c-48.87,156.97 -184.64,265.28 -355.75,265.28 -236.28,0 -401.87,-181.36 -401.87,-424.91 -0.1,-246.22 162.82,-427.57 399.1,-427.57zm8567.05 292.33l-238.95 -35.15c-114.04,-16.19 -195.5,-54.1 -195.5,-143.45 0,-97.44 105.95,-146.11 249.81,-146.11 157.49,0 258.01,67.63 279.73,178.59l314.98 0c-35.35,-281.46 -252.57,-446.53 -586.51,-446.53 -344.9,0 -572.98,175.93 -572.98,424.91 0,238.12 149.39,376.24 450.74,419.48l238.94 35.14c116.81,16.19 181.98,62.3 181.98,148.88 0,110.96 -114.04,156.97 -271.53,156.97 -192.84,0 -301.45,-78.48 -317.74,-197.55l-320.41 0c29.92,273.37 244.38,465.48 635.38,465.48 355.76,0 591.94,-162.4 591.94,-441.2 0,-248.98 -171.11,-378.9 -439.88,-419.48zm-5824.49 -1142.15c-119.47,0 -209.13,86.58 -209.13,205.64 0,119.06 89.56,205.64 209.13,205.64 119.47,0 209.13,-86.58 209.13,-205.64 -0.1,-119.06 -89.65,-205.64 -209.13,-205.64zm4781.81 1055.46c0,-303.09 -184.64,-506.06 -575.65,-506.06 -369.28,0 -575.65,186.79 -616.43,473.69l323.17 0c16.29,-110.97 103.18,-202.98 287.82,-202.98 165.69,0 247.15,73.06 247.15,162.4 0,116.4 -149.39,146.11 -334.03,165.07 -249.81,27.05 -559.35,113.63 -559.35,438.43 0,251.75 187.41,414.05 486.09,414.05 233.52,0 380.14,-97.44 453.51,-251.75 10.86,138.02 114.04,227.37 258,227.37l190.07 0.01 0 -289.56 -160.25 -0 0 -630.65 -0.1 0zm-320.51 351.85c0,186.79 -162.92,324.81 -361.19,324.81 -122.24,0 -225.42,-51.44 -225.42,-159.64 0,-138.02 165.69,-175.93 317.74,-192.11 146.63,-13.53 228.09,-46.01 268.87,-108.3l0 135.24zm-1729.7 -857.91c-181.98,0 -334.03,75.82 -442.65,202.98l0 -765.91 -325.84 -0 0 1989.31 320.41 0 0 -184.02c108.61,132.59 263.44,211.07 448.07,211.07 391.01,0 687.02,-308.51 687.02,-725.33 0,-416.82 -301.35,-728.09 -687.02,-728.09zm-48.87 1152.91c-233.52,0 -404.63,-181.36 -404.63,-424.91 0,-243.56 173.78,-427.57 407.3,-427.57 236.28,0 401.87,181.35 401.87,427.57 0.1,243.66 -171.02,424.91 -404.53,424.91zm-1498.85 -1152.91c-211.8,0 -350.33,86.58 -431.78,208.41l0 -181.35 -323.18 0 0 1399.22 325.83 0 0 -760.48c0,-213.84 135.76,-365.38 336.7,-365.38 187.41,0 304.11,132.58 304.11,324.8l0 801.15 325.84 -0 0 -825.43c0.11,-351.96 -181.77,-600.94 -537.52,-600.94zm6633.65 681.98c0,-400.52 -293.26,-681.99 -687.02,-681.99 -418.15,0 -725.04,313.94 -725.04,727.99 0,435.77 328.6,725.33 730.46,725.33 339.46,0 605.57,-200.31 673.4,-484.44l-339.46 0c-48.88,124.49 -168.35,194.89 -328.6,194.89 -209.13,0 -366.62,-129.92 -401.87,-357.29l1078.03 -0 0 -124.49 0.11 0zm-1058.97 -108.2c51.64,-194.89 198.27,-289.56 366.62,-289.56 184.64,0 325.84,105.54 358.42,289.56l-725.04 0z"/>
</svg>
