<svg id="svg-paypal-text" xmlns="http://www.w3.org/2000/svg" viewBox="550 650 1000 1000" fill="currentColor">
  <path d="M98.51 1059.69c-21.53,15.77 -51.48,23.67 -90.09,23.67l-17.42 0c-15.52,0 -25.01,-12.26 -21.63,-27.2l21.43 -92.58c3.02,-14.83 18.62,-27.14 33.93,-27.02l23.36 -0.16c27.25,0 48.04,4.72 61.95,13.86 13.76,9.03 20.65,23.4 20.54,42.44 0.41,28.94 -10.63,51.19 -32.06,66.98l0 0.02zm981.32 -97.4c-16.86,0.21 -85.41,0 -85.41,0 -15.36,0 -35.08,12.4 -44.83,27.2 0,0 -102,175.07 -111.92,192.66l-11.83 -0.15 -31.75 -191.31c-3.54,-15.05 -19.25,-27.91 -38.81,-27.91l-63.81 0.1c-15.38,0 -24.81,12.26 -21.33,27.2 0,0 48.47,275.78 58.16,340.69 4.51,35.8 -0.57,42.18 -0.57,42.18l-63.08 109.9c-9.34,14.95 -4.31,27.14 11,27.14l73.77 -0.1c15.36,0 35.56,-12.09 44.69,-27.1l283.82 -480.07c0,0.06 27.31,-40.99 1.93,-40.41l-0.03 -0.02zm1077.03 -84.15c3.27,-14.89 -6.07,-26.98 -21.39,-26.78l-63.81 0c-13.08,0 -24.86,9.71 -30.61,21.63l-3.54 5.51 -3.22 14.12 -89.19 405.46 -2.91 12.44 0.1 0.31c-2.96,13.35 5.24,23.41 17.89,25.33l1.09 1.5 66.26 0c12.98,0 25.17,-9.85 30.72,-22l3.43 -5.19 95.37 -432.28 -0.2 -0.06 0.01 -0.01zm-764.56 183.38c-21.47,15.46 -51.46,23.36 -89.87,23.36l-17.73 0c-15.32,0.15 -25.23,-12.3 -21.8,-27.14l21.59 -92.42c3.17,-14.79 18.61,-27.2 34.04,-27.04l23.09 -0.17c27.38,0.17 47.94,4.69 61.95,13.81 13.96,9.13 20.55,23.44 20.69,42.43 0.16,28.95 -10.57,51.27 -31.96,67.14l0 0.02zm153.65 -142.63c-8.93,-17.28 -22.31,-31.24 -39.22,-42.14 -17.32,-10.8 -37.88,-18.36 -61.91,-22.72 -23.61,-4.21 -51.77,-6.48 -83.8,-6.54l-148.98 0.1c-15.53,0.27 -30.41,12.3 -33.99,27.1l-100.2 436.17c-3.64,14.8 6.32,27.04 21.47,27.04l71.36 -0.1c15.16,0.1 30.67,-12.04 34.24,-26.98l24.14 -105.91c3.54,-14.74 18.82,-27.15 34.24,-27.04l20.4 0c87.22,0 154.84,-17.95 203.52,-53.49 48.1,-35.96 72.43,-83.04 72.43,-141.5 -0.25,-25.48 -4.67,-47.01 -13.7,-63.96l-0.01 -0.02zm229.15 313.83l-11.58 14.78 -27.76 14.37c-13.19,5.3 -25.75,8.04 -37.12,8.04 -18.1,0 -31.49,-2.59 -40.52,-7.78l-13.9 -26.63c0,-14.54 3.37,-25.89 10.16,-34.88 6.89,-8.45 17.44,-15.41 30.5,-20.49 12.77,-4.36 28.54,-7.88 46.92,-10.53 16.19,-2.03 48.25,-5.82 52.41,-5.86l5.04 8.66c-0.74,4.93 -9.91,42.96 -14.17,60.31l0.02 -0.01zm114.63 -252.81c-27.04,-15.16 -69.44,-22.77 -127.3,-22.77 -28.7,0 -57.33,2.22 -86.13,6.83 -21.38,3.12 -23.5,3.8 -36.69,6.6 -27.04,5.86 -31.24,33 -31.24,33l-8.72 35.8c-4.87,22.89 8,21.84 14.02,20.07 11.89,-3.54 18.26,-7 42.22,-12.61 22.99,-5.2 47.54,-9.03 66.89,-8.93 28.38,0 50.18,3.06 64.64,9.19 14.43,6.22 21.49,17.01 21.49,32.31l-1.09 10.02 -10.18 6.48c-40.83,2.44 -70.11,6.17 -105.19,11.31 -34.55,4.83 -65.05,13.24 -90.39,24.86 -27.04,11.99 -47.43,28.01 -61.34,48.47 -13.76,20.5 -20.44,45.3 -20.44,74.2 0,27.64 9.76,50.34 29.16,67.76 19.35,17.17 44.52,25.79 74.92,25.79 19.15,-0.21 34.04,-1.44 44.67,-4.2l34.41 -11.74 29.47 -16.19 26.69 -17.95 0.46 0.57 -2.44 11.52 -0.25 0.21 0.11 0.2c-3.23,13.92 5.23,25.44 18.93,26.69l0.1 0.25 1.25 0c8.98,0 40,0 54.79,0l10.07 0 1.09 -0.35c14.07,-1.72 27.35,-13.14 30.3,-26.89l52.09 -224.52 2.76 -18.41 1.5 -17.22c0.06,-31.75 -13.54,-55.26 -40.67,-70.37l0.03 0zm-1408.91 252.48l-11.11 14.64 -28.01 14.48c-13.18,5.35 -25.69,8.04 -37.26,8.04 -17.54,0 -31.28,-2.55 -40.56,-7.72l-13.76 -26.73c0,-14.48 3.33,-25.95 10.43,-34.78l30.19 -20.54c12.93,-4.36 28.69,-8.04 46.97,-10.57 16.29,-2.03 48.47,-5.72 52.65,-5.82l4.95 8.67c-0.98,4.93 -10.12,43.11 -14.49,60.34l0 -0.02zm114.89 -252.79c-26.89,-15.15 -69.32,-22.72 -127.34,-22.72 -28.7,0 -57.29,2.24 -86.19,6.69 -21.33,3.27 -23.4,3.9 -36.54,6.74 -27.09,5.91 -31.33,32.95 -31.33,32.95l-8.72 35.85c-4.93,22.89 8.25,22 13.76,20.09 11.83,-3.53 18.41,-7.16 42.59,-12.56 23.09,-5.24 47.44,-9.17 66.74,-8.93 28.5,0 50.27,3.02 64.8,9.13 14.33,6.22 21.49,16.91 21.49,32.37l-1.25 10.07 -10.28 6.32c-40.41,2.55 -69.63,6.28 -105.07,11.41 -34.67,4.83 -65.07,13.28 -90.34,24.86 -27.15,11.93 -47.28,27.97 -61.34,48.37 -13.59,20.49 -20.39,45.35 -20.39,74.51 0,27.44 9.85,50.12 29,67.66 19.24,17.22 44.67,25.64 75.07,25.64 19.25,-0.1 34.15,-1.62 44.73,-4.15l34.51 -11.89 29.21 -16.2 26.89 -17.73 0.35 0.52 -2.7 11.41 -0.16 0.47 0 0.1c-2.9,13.9 5.5,25.31 19.04,26.67l0.27 0.31 1.24 0 54.64 0 10.28 0 0.93 -0.41c14.23,-1.66 27.54,-13.08 30.67,-26.67l51.93 -224.84 2.71 -18.31 1.25 -17.17c0.2,-31.86 -13.55,-55.46 -40.47,-70.57l0.03 0.02zm1797.87 -152.86l-17.01 -7 -12.55 2.55 -12.77 8.6 -7.42 -8.23 -12.03 -2.87 -11.58 2.55 -10.94 7.06 0 -7.67 -11.57 0 0 69.28 11.52 0 0 -51.74 9.71 -6.01 9.65 -2.39 7.88 1.4 3.9 4.01 1.71 6.64 0.57 8.56 0 39.6 11.58 0 0 -44.32 -0.2 -3.68 -0.22 -3.37 9.87 -6.28 9.75 -2.44 7.63 1.4 4.15 4.01 1.46 6.69 0.77 8.45 0 39.6 11.63 0 0 -44.99 -5.46 -19.35 -0 -0.04zm-110.46 53.35l-4.46 1.34 -5.95 0.84 -7.32 -1.15 -3.74 -3.64 -1.71 -5.7 -0.1 -8.56 0 -31.7 23.81 0 0 -9.81 -23.81 0 0 -19.77 -11.78 0 0 19.77 -7.98 0 0 9.81 7.98 0 0 36.89 5.51 18.26 16.19 5.8 6.81 -0.57 7.2 -1.4 0 -10.43 -0.62 0 -0.01 0zm-2030.97 37.2c-8.56,-17.17 -22.09,-31.34 -38.91,-41.97 -17.54,-10.74 -38.25,-18.26 -61.91,-22.72 -24.08,-4.36 -51.89,-6.32 -84.13,-6.64l-148.77 0.12c-15.47,0.2 -30.61,12.24 -34.24,27.19l-100.09 435.96c-0.52,2.07 -0.77,4.11 -0.77,6.04 -0.03,11.93 9.01,21.04 22.3,21.04l71.24 0c15.48,0 30.77,-11.99 34.2,-27.1l24.45 -105.85c3.27,-14.74 18.52,-27.04 34.14,-27.04l20.4 0c87.11,-0.1 154.57,-17.89 203.04,-53.55 48.72,-35.7 72.76,-82.87 72.76,-141.29 -0.06,-25.58 -4.27,-47.07 -13.71,-64.19l0 0z"/>
</svg>
